<svg width="135" height="35" viewBox="0 0 135 35" fill="none" xmlns="http://www.w3.org/2000/svg">
<path d="M86.9649 0.127126C86.0274 0.47633 85.8685 1.40754 86.5994 2.0914C87.1238 2.55701 87.521 2.61521 88.1884 2.2951C88.9194 1.96045 89.0783 1.08744 88.5221 0.447229C88.1408 -0.00382611 87.5846 -0.120228 86.9649 0.127126Z" fill="white"/>
<path d="M5.89539 0.898191C4.57653 1.87305 3.41657 2.06221 2.5903 1.422C2.19306 1.11644 1.95471 1.05824 1.14433 1.05824H0.175049V2.73151V4.40479H16.8594H33.5437V2.73151V1.05824H32.5744C31.764 1.05824 31.5257 1.11644 31.1284 1.422C30.3339 2.04766 29.0945 1.8585 27.9505 0.927292C27.4261 0.519887 27.2831 0.476236 26.2661 0.476236C25.4558 0.476236 25.1062 0.534437 24.9473 0.709039C24.5977 1.10189 23.8986 1.34925 23.1358 1.34925C22.3731 1.34925 21.674 1.10189 21.3244 0.709039C21.1655 0.534437 20.8159 0.476236 20.1009 0.476236C19.2269 0.476236 18.9886 0.534437 18.4166 0.912741C17.9081 1.26195 17.6062 1.34925 16.9865 1.34925C16.192 1.34925 15.4769 1.10189 15.1274 0.709039C14.9685 0.534437 14.6189 0.476236 13.7608 0.476236C12.9028 0.476236 12.5532 0.534437 12.3943 0.709039C12.0447 1.10189 11.2979 1.37835 10.5829 1.37835C9.86784 1.37835 9.12102 1.10189 8.77144 0.709039C8.61255 0.534437 8.26297 0.476236 7.50026 0.476236C6.57865 0.476236 6.37208 0.534437 5.89539 0.898191Z" fill="white"/>
<path d="M38.0082 1.18903C38.2942 1.50913 38.3101 1.84379 38.3101 5.39403C38.3101 9.04613 38.2942 9.27893 37.9923 9.56993L37.6904 9.87549H39.6608H41.6311L41.3292 9.56993C41.0432 9.29348 41.0114 9.04613 41.0114 7.22736V5.20488L42.2985 7.16915C43.5379 9.04613 43.5856 9.14798 43.3631 9.49718L43.1406 9.86094L45.1745 9.87549C47.1925 9.87549 47.2084 9.87549 47.0019 9.58448C46.8747 9.40988 46.2709 8.47867 45.6353 7.48926L44.4913 5.71414H43.1724C42.0125 5.71414 41.8218 5.67049 41.5199 5.37948C41.0909 4.95753 41.075 4.49192 41.4881 4.11362C41.7741 3.85171 42.0125 3.82261 43.6332 3.82261H45.4606V2.28029V0.737975L44.9521 0.839826C43.2836 1.14538 41.7582 2.23664 41.2498 3.48796C41.0432 4.04087 41.0273 4.02632 41.0273 2.7459C41.0114 1.64009 41.0591 1.39273 41.3133 1.14538L41.6311 0.839826H39.6767H37.7063L38.0082 1.18903Z" fill="white"/>
<path d="M59.9206 1.04434C60.0001 1.20439 60.159 1.37899 60.2384 1.42264C60.4132 1.52449 60.4609 4.25993 60.302 4.25993C60.2384 4.25993 59.9524 4.05622 59.6505 3.82342C59.2215 3.47422 58.9672 3.38692 58.4111 3.38692C57.8232 3.38692 57.5848 3.47422 57.0763 3.89617C55.3126 5.35119 55.6463 9.00329 57.6325 9.86175C58.3793 10.1819 59.1102 10.0509 59.7617 9.49799C60.0477 9.25064 60.302 9.06149 60.3338 9.06149C60.3655 9.06149 60.3973 9.25064 60.3973 9.49799V9.9345H62.0022H63.6071L63.3528 9.57074C63.1304 9.26519 63.0986 8.63953 63.0986 4.98744V0.767883H61.4302C59.8094 0.767883 59.7617 0.782433 59.9206 1.04434ZM59.9842 4.58003C60.1749 4.82738 60.2384 5.30754 60.2384 6.67526C60.2384 8.21758 60.1908 8.49403 59.9365 8.78503C59.5393 9.23609 59.1261 9.03239 58.9196 8.31943C58.713 7.57737 58.8401 4.78373 59.1102 4.49273C59.4122 4.17263 59.6982 4.20173 59.9842 4.58003Z" fill="white"/>
<path d="M82.1823 1.66942C81.7056 2.06228 80.8476 2.68793 80.2755 3.03714L79.2268 3.67735H79.8306H80.4185V6.23818C80.4185 9.20642 80.5139 9.48287 81.6421 9.87572C83.0721 10.385 84.1527 9.54107 84.6293 7.53315C84.7247 7.12574 84.7247 7.11119 84.4228 7.35854C84.0573 7.6641 83.6918 7.67865 83.3741 7.37309C83.1675 7.19849 83.1198 6.79109 83.1198 5.40882V3.67735H83.9143C84.3592 3.67735 84.7088 3.6046 84.7088 3.53184C84.7088 3.44454 84.3592 3.38634 83.9143 3.38634H83.1357L83.088 2.16413L83.0404 0.941913L82.1823 1.66942Z" fill="white"/>
<path d="M47.2244 3.70695C47.3038 3.8379 47.4468 3.99795 47.5263 4.04161C47.6216 4.09981 47.6852 5.08922 47.6852 6.48604C47.6852 9.23602 47.8282 9.64342 48.9246 9.94898C50.0369 10.24 50.9903 9.74528 51.4828 8.61036C51.61 8.31936 51.6417 8.40666 51.6417 9.06142L51.6576 9.87623L53.3102 9.86168H54.9627L54.6608 9.46882C54.3907 9.13417 54.3589 8.79951 54.3589 6.26778V3.4596H52.7064H51.0379L51.3557 3.76515C51.6258 4.02705 51.6576 4.27441 51.6576 5.81673C51.6576 7.781 51.5305 8.08656 50.7837 7.781C50.3864 7.6064 50.3864 7.6064 50.3864 5.54027V3.4596H48.7339C47.2244 3.4596 47.0972 3.4887 47.2244 3.70695Z" fill="white"/>
<path d="M66.8328 3.76505C66.4038 3.93965 65.7047 4.17245 65.2915 4.25975C64.4652 4.44891 64.4176 4.50711 64.7672 4.92906C65.1008 5.33647 65.1167 9.23591 64.7672 9.49782C64.64 9.59967 64.5288 9.71607 64.5288 9.77427C64.5288 9.81792 65.371 9.86157 66.4197 9.86157H68.3106L68.0087 9.51237C67.7703 9.23591 67.7068 8.91581 67.7068 7.88275C67.7068 6.22403 67.7862 6.15128 69.5182 6.15128H70.8212V4.76901C70.8212 3.43039 70.8212 3.38674 70.5034 3.47404C69.3752 3.79415 68.39 4.55076 67.961 5.40922C67.8021 5.72932 67.7703 5.62747 67.7068 4.60896L67.6273 3.44494L66.8328 3.76505Z" fill="white"/>
<path d="M73.0299 3.67797C72.9663 3.83802 72.6803 4.27453 72.3784 4.62373C72.0765 4.98749 71.8381 5.30759 71.8381 5.35124C71.8381 5.39489 72.4896 5.42399 73.2682 5.42399H74.6983V4.49278V3.54702L75.1591 3.69252C75.4292 3.77982 75.6994 4.01262 75.8106 4.25998C76.1284 4.97294 75.6517 5.51129 74.0627 6.2388C73.3159 6.57346 72.5532 7.00996 72.3466 7.21366C71.5362 8.01393 71.8222 9.46894 72.871 9.87635C73.9833 10.2983 75.1114 9.7454 75.5564 8.56683L75.7629 8.02848L75.9377 8.59593C76.2396 9.49804 76.764 9.8327 77.9875 9.90545L79.0362 9.9782L78.7025 9.57079C78.3847 9.19249 78.353 9.00334 78.353 6.96631C78.353 5.07479 78.3053 4.71103 78.0511 4.31818C77.5585 3.59067 76.8752 3.38697 74.889 3.38697C73.2682 3.38697 73.1252 3.41607 73.0299 3.67797ZM75.5881 7.69382C75.4769 8.08668 74.9366 8.27583 74.6189 8.04303C74.4758 7.94117 74.3805 7.60652 74.3805 7.27187C74.3805 6.79171 74.4758 6.60256 74.9843 6.1806L75.5722 5.6568L75.6199 6.51526C75.6517 6.99541 75.6358 7.51922 75.5881 7.69382Z" fill="white"/>
<path d="M85.8368 3.76505C86.107 4.02695 86.1387 4.28885 86.1387 6.66053C86.1387 9.03221 86.107 9.29412 85.8368 9.55602L85.519 9.86157H87.4894H89.4597L89.1419 9.55602C88.8718 9.27956 88.84 9.03221 88.84 6.35498V3.45949H87.1875H85.519L85.8368 3.76505Z" fill="white"/>
<path d="M0.0476695 15.0564C0.095339 24.4122 0.111229 24.7177 0.413135 25.1979C0.651483 25.5471 2.35169 26.682 6.73729 29.3883C10.0424 31.4254 13.2203 33.3023 13.8083 33.5497C14.7458 33.9571 15.0794 34.0153 16.5095 34.0589C19.179 34.1608 19.2902 34.1026 26.6472 29.6066C32.4788 26.0272 33.0191 25.6635 33.3527 25.0669L33.7023 24.4267V14.9254V5.42418H16.8591H0L0.0476695 15.0564ZM22.1822 11.6808C22.2299 11.7535 21.8962 13.9797 21.4354 16.6278L20.5932 21.4294L16.875 21.4003L13.1409 21.3566L12.3146 16.6278C11.8697 14.0233 11.536 11.8263 11.5678 11.7244C11.6631 11.4916 22.0233 11.448 22.1822 11.6808ZM20.482 22.6952L20.4343 23.5392L17.0339 23.5828C14.6663 23.6119 13.5699 23.5683 13.4269 23.4519C13.2998 23.35 13.2044 23.0008 13.2044 22.5788V21.8659H16.8591H20.5297L20.482 22.6952Z" fill="white"/>
<path d="M12.9657 13.1213C13.0134 13.3395 13.3312 15.0128 13.6649 16.8315C13.9986 18.6358 14.3005 20.1635 14.364 20.2072C14.5547 20.3818 15.6988 20.5564 16.7316 20.5564C18.1458 20.5564 19.3693 20.309 19.4647 20.0035C19.56 19.7561 20.8312 13.0049 20.8312 12.8011C20.8312 12.7429 19.0356 12.6993 16.8428 12.6993H12.8545L12.9657 13.1213ZM16.9541 14.6054C17.7486 14.6054 18.5907 14.5617 18.8132 14.5181C19.3375 14.3871 19.3375 14.4599 19.0039 16.5551C18.8767 17.3554 18.7655 18.2575 18.7655 18.5485C18.7655 18.8395 18.6543 19.1741 18.5272 19.2905C18.0981 19.6979 15.953 19.7707 15.3015 19.4069C15.095 19.2905 14.4276 14.7945 14.5706 14.5617C14.6342 14.489 14.8566 14.4599 15.0791 14.5181C15.3174 14.5763 16.1596 14.6054 16.9541 14.6054Z" fill="white"/>
<path d="M38.3264 11.9861C38.5012 12.2189 38.7078 12.4372 38.7872 12.4808C38.9938 12.5972 38.9938 24.2956 38.7872 24.412C38.7078 24.4556 38.4853 24.703 38.2946 24.9503L37.9451 25.4014L38.6919 25.2995C39.6453 25.1686 42.7279 25.1686 43.5065 25.2995L44.0785 25.4014L43.5701 24.8194L43.0775 24.2519L43.1093 21.3564L43.1569 18.4609L45.0319 21.3419L46.9228 24.2228L46.4302 24.7903L45.9218 25.3577L47.1612 25.2704C47.8444 25.2268 48.5277 25.1686 48.6707 25.1395C48.8296 25.1249 49.6876 25.154 50.5775 25.2122C51.4832 25.285 52.23 25.3141 52.2618 25.2995C52.2777 25.2704 51.4037 23.8736 50.3073 22.2003L48.337 19.1448L46.5415 19.072C44.6188 18.9993 43.8879 18.781 43.5383 18.199C43.284 17.748 43.3317 16.8459 43.6495 16.4094C44.1421 15.7255 44.6188 15.6091 47.0023 15.6091H49.1951L49.7035 14.7652C49.9737 14.3141 50.5457 13.5139 50.9747 13.0046C51.3879 12.4954 51.8169 11.9716 51.9281 11.8406C52.1029 11.6223 51.8646 11.6078 49.4334 11.6078H46.7321V13.3829V15.1726H45.8264C44.7459 15.1726 43.7607 15.5654 43.3635 16.1475C43.0934 16.5403 43.0934 16.5112 43.0775 14.5906V12.6263L43.586 12.0443C43.9832 11.6078 44.0309 11.5059 43.7925 11.5932C43.284 11.7824 39.9154 11.8697 38.9143 11.7096L38.0086 11.5787L38.3264 11.9861Z" fill="white"/>
<path d="M65.228 12.1604L65.8001 12.8006V18.4752V24.1352L65.2121 24.7754C64.656 25.3719 64.6401 25.401 65.0056 25.3137C65.8319 25.11 68.3107 25.0373 69.4547 25.1828C70.1062 25.2701 70.6624 25.3283 70.6782 25.2992C70.6941 25.2846 70.5035 25.0373 70.2492 24.7608L69.7884 24.2661L69.7725 21.6907C69.7725 19.1881 69.7884 19.1154 70.1221 18.8971C70.6306 18.577 71.0914 18.6061 71.4886 18.999C71.8223 19.3191 71.8382 19.4646 71.8382 22.3164V25.2846H74.3647H76.9071L76.478 24.8772L76.049 24.4698L75.9696 20.8759C75.8901 17.3839 75.8742 17.2675 75.4929 16.6418C74.9367 15.7397 74.2535 15.4342 72.9346 15.4924C71.584 15.5506 70.9802 15.958 70.2969 17.2238L69.7884 18.155L69.7725 14.8376V11.5347L69.3435 11.6366C68.7397 11.7821 66.0225 11.7675 65.2598 11.6366L64.656 11.5202L65.228 12.1604Z" fill="white"/>
<path d="M110.752 12.1021L111.244 12.6696V18.446V24.2224L110.752 24.7899L110.259 25.3573L111.038 25.2409C112.023 25.11 113.834 25.11 114.708 25.2555L115.376 25.3573V24.6298V23.8878L115.868 24.4116C117.584 26.2013 120.127 25.6047 121.334 23.1457C122.256 21.2687 122.002 18.3442 120.794 16.8164C120.079 15.9143 119.428 15.5651 118.379 15.4923C117.6 15.4341 117.346 15.4923 116.742 15.8124C116.361 16.0161 115.9 16.3653 115.709 16.5836L115.392 16.991L115.376 14.2701V11.5347L114.629 11.6511C113.66 11.782 112.198 11.782 111.117 11.6511L110.275 11.5492L110.752 12.1021ZM117.219 17.3838C117.553 17.9804 117.712 21.1087 117.473 22.5055C117.187 24.1788 116.313 24.5425 115.678 23.2767C115.439 22.7674 115.376 22.3018 115.376 20.5558C115.376 19.3918 115.439 18.2278 115.535 17.9513C115.868 16.86 116.758 16.569 117.219 17.3838Z" fill="white"/>
<path d="M132.299 11.7235C130.471 12.4946 131.075 15.0264 133.093 15.0264C134.396 15.0264 135.286 13.8769 134.873 12.742C134.523 11.7962 133.3 11.3161 132.299 11.7235ZM133.713 11.8835C134.412 12.1454 134.762 12.6401 134.762 13.324C134.762 14.0806 133.935 14.8809 133.173 14.8809C131.298 14.8809 130.726 12.5674 132.442 11.8835C133.061 11.6362 133.077 11.6362 133.713 11.8835Z" fill="white"/>
<path d="M132.219 13.2662C132.219 13.761 132.283 14.1538 132.378 14.1538C132.473 14.1538 132.537 13.9938 132.537 13.7901C132.537 13.3244 132.743 13.3244 133.236 13.8192C133.458 14.0374 133.681 14.1684 133.744 14.1102C133.808 14.052 133.744 13.8919 133.601 13.7464C133.363 13.4991 133.363 13.4699 133.617 13.2371C134.03 12.8588 133.697 12.4951 132.87 12.4369L132.219 12.3932V13.2662ZM133.347 12.917C133.347 12.9898 133.156 13.0771 132.934 13.1062C132.648 13.1353 132.537 13.0916 132.537 12.917C132.537 12.7424 132.648 12.6988 132.934 12.7279C133.156 12.757 133.347 12.8297 133.347 12.917Z" fill="white"/>
<path d="M54.5658 16.1332C54.3116 16.5115 53.819 17.1663 53.4535 17.6028C53.0722 18.0247 52.7703 18.403 52.7703 18.4467C52.7703 18.4903 53.7395 18.5194 54.9154 18.5194H57.0605V17.1372V15.7549L57.5054 15.8422C58.2046 16.0023 58.4747 16.1769 58.7289 16.6279C59.0309 17.1517 59.0309 17.5446 58.7448 18.0538C58.3953 18.6795 57.9345 18.9705 55.9006 19.9017C53.5012 20.993 53.0563 21.4295 52.9609 22.7826C52.8974 23.8448 53.2152 24.5141 54.0414 25.0234C55.6622 26.0419 57.9662 25.0961 58.5065 23.19L58.7131 22.448L58.9832 23.2628C59.5075 24.7906 60.6039 25.4162 62.5902 25.3289L63.6071 25.2853L63.1145 24.7178L62.622 24.1504V20.9202C62.622 17.821 62.6061 17.661 62.2565 17.0499C62.0023 16.6279 61.6209 16.2642 61.1124 15.9732C60.3497 15.5367 60.3179 15.5367 57.6802 15.493L55.0107 15.4348L54.5658 16.1332ZM58.2523 22.2588C58.0457 22.5353 57.8868 22.5935 57.4895 22.5644C56.8063 22.5062 56.5044 21.9387 56.6633 21.0366C56.7427 20.4837 56.9175 20.2509 57.5849 19.6544L58.4112 18.9268L58.4588 20.411C58.4906 21.5895 58.4429 21.9824 58.2523 22.2588Z" fill="white"/>
<path d="M81.6898 15.6531C81.2131 15.7113 80.1008 15.7259 79.2428 15.6677L77.6697 15.5804L78.1782 16.1333L78.6707 16.7007V20.0473C78.6707 22.9864 78.7184 23.4665 78.9726 23.9904C79.5447 25.1253 80.8318 25.6927 82.1347 25.3726C83.0881 25.1398 83.676 24.6306 84.2481 23.5393L84.7089 22.6663V24.0195V25.3872L85.2173 25.2853C85.8847 25.1398 88.6337 25.1398 89.301 25.2853L89.8413 25.3872L89.3487 24.8343L88.8402 24.2668V19.9454V15.6095L87.2195 15.6968C86.3137 15.7404 85.1697 15.7259 84.6771 15.6531L83.7714 15.5076L84.0892 15.915C84.264 16.1478 84.4705 16.3661 84.55 16.4097C84.6453 16.4679 84.7089 17.6028 84.7089 19.1015C84.7089 21.2695 84.6612 21.7351 84.4546 21.9242C84.1368 22.2152 83.3741 22.2152 83.0563 21.9242C82.9133 21.8078 82.7862 21.6914 82.7703 21.6769C82.7544 21.6623 82.7068 20.2655 82.6591 18.5922L82.5637 15.5367L81.6898 15.6531Z" fill="white"/>
<path d="M91.2395 15.9287C91.4143 16.1469 91.6208 16.3652 91.7003 16.4088C91.7956 16.467 91.8592 18.0675 91.8592 20.3665V24.2223L91.3666 24.7897L90.8899 25.3426L91.7321 25.2408C92.8285 25.1098 95.2278 25.1098 96.1971 25.2408L96.9757 25.3572L96.4831 24.7897L95.9905 24.2223V21.6905C95.9905 19.4062 96.0223 19.1151 96.2765 18.9114C96.6579 18.5913 97.1346 18.6059 97.5954 18.9405C97.9768 19.217 97.9768 19.2607 98.0244 22.3016C98.0721 24.9934 98.1039 25.3717 98.3104 25.299C98.8348 25.1098 101.202 25.0371 102.029 25.1826C102.505 25.2699 102.918 25.3135 102.95 25.2844C102.982 25.2553 102.775 25.008 102.521 24.7315L102.029 24.2223V21.676C102.029 19.2024 102.045 19.1151 102.378 18.8969C102.871 18.5768 103.395 18.6059 103.777 18.9551C104.078 19.2316 104.094 19.4353 104.094 22.3016V25.3572L104.778 25.2553C105.62 25.1098 107.797 25.1098 108.591 25.2408L109.179 25.3426L108.702 24.8043L108.226 24.2659V21.254C108.226 17.8493 108.083 16.9617 107.415 16.2633C106.796 15.6231 106.192 15.4194 105.08 15.4922C103.84 15.5649 103.284 15.9578 102.648 17.1509L102.124 18.1112L101.949 17.4564C101.568 16.0742 100.757 15.4631 99.2797 15.4631C97.8337 15.4631 97.1187 15.9287 96.4037 17.3546L95.9905 18.1548V16.8308V15.5213L94.7193 15.6522C93.9725 15.725 92.9238 15.725 92.1929 15.6522L90.9376 15.5213L91.2395 15.9287Z" fill="white"/>
<path d="M127.262 15.7106C126.308 16.0453 125.228 16.7437 124.688 17.3984C123.544 18.7807 123.321 21.036 124.179 22.6365C125.244 24.6299 127.881 25.7939 130.376 25.3719C132.315 25.0518 133.665 24.1352 134.476 22.622C134.952 21.7489 135 21.5307 135 20.4103C135 19.3918 134.921 19.0281 134.571 18.3588C134.047 17.3111 133.062 16.409 131.918 15.9289C130.758 15.4196 128.438 15.3178 127.262 15.7106ZM129.979 16.1326C130.551 16.8019 130.821 17.8931 130.901 19.9011C131.044 23.2185 130.17 25.6193 129.041 25.0664C128.231 24.6735 127.738 22.9275 127.754 20.4394C127.754 18.2132 128.104 16.6564 128.74 15.9434C129.026 15.6379 129.629 15.7252 129.979 16.1326Z" fill="white"/>
<path d="M39.6451 29.199C39.0413 29.4464 38.6917 30.203 38.93 30.7559C39.1207 31.2215 39.518 31.5416 40.7097 32.1818C41.25 32.4728 41.7902 32.8366 41.9014 32.9966C42.4258 33.7241 41.1228 34.5099 40.1218 34.0734C39.5339 33.8114 39.4385 33.3167 39.9152 33.0112C40.2648 32.7929 40.2648 32.7784 39.9788 32.4874C39.4067 31.9054 38.4692 32.2546 38.4692 33.0548C38.4692 33.8114 39.5021 34.3789 40.8845 34.3789C42.2669 34.3789 43.2362 33.7096 43.2362 32.7493C43.2362 32.1964 42.8072 31.789 41.5519 31.1633C39.8834 30.3194 39.4544 29.5773 40.519 29.33C41.3771 29.1263 41.8061 29.3154 42.2828 30.1448L42.5847 30.6686L42.6006 29.8683V29.0681L41.3612 29.039C40.5985 29.0099 39.947 29.0826 39.6451 29.199Z" fill="white"/>
<path d="M44.6661 29.2863C44.3642 29.4464 43.9511 29.5628 43.7604 29.5773C43.3791 29.5773 43.0772 29.8683 43.4585 29.8683C43.8875 29.8683 44.0305 30.4067 44.0305 32.08C44.0305 33.7969 43.9829 33.9424 43.4744 34.2043C43.2202 34.3353 43.4426 34.3644 44.5867 34.3644C45.9373 34.3644 46.0009 34.3498 45.6672 34.1316C45.3494 33.9424 45.3017 33.7823 45.3017 32.9675C45.3017 31.8763 45.4924 31.4689 46.0009 31.4689C46.557 31.4689 46.7318 31.7744 46.843 32.9093C46.9225 33.826 46.9066 33.9715 46.6365 34.1607C46.3664 34.3498 46.4776 34.3644 47.6693 34.3789C48.9564 34.3789 48.9882 34.3644 48.6545 34.117C48.4161 33.9424 48.2731 33.5932 48.1619 32.8075C48.0666 32.2109 47.9236 31.6144 47.8441 31.4543C47.4945 30.8723 46.5888 30.7123 45.7784 31.1051L45.3176 31.3234L45.27 30.1739L45.2223 29.0244L44.6661 29.2863Z" fill="white"/>
<path d="M62.4631 31.6871C62.4631 33.3895 62.5267 34.3789 62.622 34.3789C62.7174 34.3789 62.7809 33.3895 62.7809 31.6871C62.7809 29.9848 62.7174 28.9953 62.622 28.9953C62.5267 28.9953 62.4631 29.9848 62.4631 31.6871Z" fill="white"/>
<path d="M64.8464 29.1263C64.8464 29.199 64.9894 29.2863 65.1642 29.33C65.4661 29.4027 65.482 29.5337 65.482 31.658C65.482 33.8405 65.4661 33.9279 65.1325 34.1461C64.7988 34.3644 64.8147 34.3789 65.6727 34.3789H66.5784L66.1971 34.0152C65.8157 33.6805 65.7998 33.5786 65.7998 31.8326C65.7998 30.8287 65.8316 30.0139 65.8634 30.0139C65.9111 30.0139 66.3877 30.7996 66.9439 31.7599C67.4841 32.7202 67.9926 33.5059 68.0562 33.5059C68.1197 33.5059 68.5964 32.7638 69.1208 31.8617C69.6452 30.9742 70.1377 30.1303 70.2331 30.0139C70.3443 29.8684 70.392 30.3922 70.392 31.7308C70.4079 33.5932 70.392 33.6805 70.0106 34.0152L69.6293 34.3789H71.0911H72.553L72.1558 34.0879C71.7903 33.826 71.7585 33.7241 71.7108 32.2546C71.6314 30.2467 71.7585 29.4173 72.1716 29.33C72.8072 29.1699 72.4259 28.9953 71.4407 28.9953H70.4079L70.0742 29.6064C69.8835 29.9557 69.4863 30.6541 69.1685 31.1633L68.6123 32.0945L67.7543 30.5377L66.9121 28.9953H65.8793C65.3072 28.9953 64.8464 29.0535 64.8464 29.1263Z" fill="white"/>
<path d="M82.8816 29.3009C82.6274 29.4464 82.2143 29.5773 81.9759 29.5773C81.7217 29.5773 81.531 29.6355 81.531 29.7228C81.531 29.7956 81.6422 29.8683 81.7694 29.8683C82.1666 29.8683 82.3255 30.5231 82.3255 32.1382C82.3255 33.5641 82.2937 33.695 81.9283 34.0152L81.5469 34.3789L82.9293 34.3644C84.2323 34.3644 84.2958 34.3498 83.9621 34.1316C83.5013 33.8405 83.4537 32.9966 83.8827 32.7929C84.1369 32.6765 84.2323 32.7493 84.5342 33.3167C84.8043 33.826 84.8361 34.0152 84.6931 34.1752C84.5342 34.3498 84.709 34.3789 85.7577 34.3789H87.013L86.584 34.0443C86.3456 33.8696 85.9007 33.2876 85.5829 32.7493L85.0109 31.7744L85.5352 31.4689C85.8213 31.3088 86.1549 31.1779 86.2662 31.1779C86.3615 31.1779 86.4569 31.1051 86.4569 31.0324C86.4569 30.9451 86.1073 30.8869 85.6624 30.8869C84.9155 30.8869 84.6136 31.0615 85.0744 31.2361C85.1857 31.2797 84.9632 31.5562 84.4706 31.9636L83.6761 32.6183L83.6285 30.7996C83.6126 29.8101 83.5331 28.9953 83.4696 29.0099C83.406 29.0099 83.1518 29.1408 82.8816 29.3009Z" fill="white"/>
<path d="M95.6723 29.2566C95.1797 29.6204 95.3386 30.2606 95.9424 30.3916C96.4667 30.5225 96.8481 30.3043 96.9117 29.8532C96.9911 29.1548 96.2761 28.8056 95.6723 29.2566Z" fill="white"/>
<path d="M99.3274 29.3001C99.0255 29.4601 98.6123 29.5765 98.4217 29.5765C97.9767 29.5765 97.9609 29.7366 98.374 29.9839C98.66 30.144 98.6918 30.3186 98.6918 31.9482C98.6918 33.7961 98.66 33.9416 98.1356 34.2035C97.8814 34.3344 98.1198 34.3635 99.3274 34.3635C100.519 34.3635 100.773 34.3344 100.519 34.2035C100.344 34.1162 100.17 34.0143 100.122 33.9852C100.074 33.9416 100.011 32.8212 99.963 31.468L99.8835 29.0382L99.3274 29.3001Z" fill="white"/>
<path d="M106.637 31.6871C106.637 33.3895 106.701 34.3789 106.796 34.3789C106.891 34.3789 106.955 33.3895 106.955 31.6871C106.955 29.9848 106.891 28.9953 106.796 28.9953C106.701 28.9953 106.637 29.9848 106.637 31.6871Z" fill="white"/>
<path d="M111.086 29.1406C111.086 29.2133 111.229 29.2861 111.404 29.2861C111.913 29.2861 112.04 29.7662 112.024 31.716C112.024 34.2913 111.658 35.1061 110.705 34.6987C110.212 34.495 110.165 34.0294 110.562 33.6075C110.832 33.3456 110.832 33.3165 110.467 33.0546C109.481 32.3125 108.464 33.7093 109.402 34.5241C110.196 35.1934 112.119 35.1498 112.85 34.4368C113.2 34.0876 113.231 33.9276 113.327 31.8469C113.406 29.5916 113.47 29.2861 113.883 29.2861C114.01 29.2861 114.105 29.2133 114.105 29.1406C114.105 29.0533 113.502 28.9951 112.596 28.9951C111.69 28.9951 111.086 29.0533 111.086 29.1406Z" fill="white"/>
<path d="M120.302 29.2859C120.127 29.446 119.984 29.6206 119.984 29.6933C119.984 29.9843 120.525 30.45 120.858 30.45C121.192 30.45 121.732 29.9843 121.732 29.6933C121.732 29.4896 121.113 28.9949 120.858 28.9949C120.731 28.9949 120.477 29.1259 120.302 29.2859Z" fill="white"/>
<path d="M54.7879 30.2316C54.5177 30.5371 54.1364 30.7845 53.8663 30.8427C53.3419 30.93 53.2466 31.1773 53.7232 31.1773C54.0093 31.1773 54.041 31.2792 54.041 32.3559C54.041 33.4763 54.1999 34.0292 54.5813 34.262C54.915 34.4657 55.7413 34.3784 55.9955 34.1165C56.361 33.7527 56.3292 33.6654 55.9319 33.7527C55.4393 33.8691 55.3122 33.5781 55.3122 32.2977V31.1773H55.7889C56.0591 31.1773 56.2656 31.1046 56.2656 31.0318C56.2656 30.9445 56.0591 30.8863 55.8048 30.8863C55.3599 30.8863 55.3281 30.8427 55.2804 30.3043L55.2328 29.7223L54.7879 30.2316Z" fill="white"/>
<path d="M88.157 30.2316C87.8869 30.5371 87.5055 30.7845 87.2354 30.8427C86.711 30.93 86.6157 31.1773 87.0924 31.1773C87.3784 31.1773 87.4102 31.2792 87.4102 32.3559C87.4102 33.4763 87.5691 34.0292 87.9504 34.262C88.2841 34.4657 89.1104 34.3784 89.3646 34.1165C89.7301 33.7527 89.6983 33.6654 89.3011 33.7527C88.8085 33.8691 88.6814 33.5781 88.6814 32.2977V31.1773H89.1581C89.4282 31.1773 89.6348 31.1046 89.6348 31.0318C89.6348 30.9445 89.4282 30.8863 89.174 30.8863C88.729 30.8863 88.6973 30.8427 88.6496 30.3043L88.6019 29.7223L88.157 30.2316Z" fill="white"/>
<path d="M50.2276 30.9742C49.735 31.1633 49.1153 31.8326 49.02 32.2837C48.7816 33.4768 49.6556 34.3789 51.0698 34.3789C52.5158 34.3789 53.3738 33.6077 53.199 32.4437C53.0719 31.5416 52.3728 31.0033 51.3081 30.9451C50.8473 30.916 50.3547 30.9305 50.2276 30.9742ZM51.6577 31.789C52.0708 32.6183 52.0708 33.6659 51.6736 34.0006C51.2446 34.3498 50.8155 34.117 50.4819 33.3604C49.9893 32.24 50.2276 31.1779 50.9586 31.1779C51.2764 31.1779 51.4194 31.3088 51.6577 31.789Z" fill="white"/>
<path d="M57.5529 31.1627C56.8856 31.7739 57.1398 32.2395 58.6493 33.1125C59.5233 33.6363 59.2532 34.4074 58.268 34.1746C57.7913 34.0728 57.5371 33.6799 57.839 33.5199C57.9343 33.4617 57.982 33.3016 57.9184 33.1561C57.839 32.9815 57.6642 32.9233 57.3146 32.9524C56.8856 32.9961 56.822 33.0543 56.7743 33.4762C56.7267 33.8982 56.7902 33.9709 57.2828 34.1601C57.9184 34.4074 59.2214 34.4511 59.8252 34.2328C60.0635 34.1601 60.3178 33.9273 60.429 33.7236C60.6991 33.1707 60.3972 32.7487 59.3644 32.2104C58.4428 31.7302 58.1409 31.381 58.4904 31.1773C58.84 30.9881 59.3167 31.2064 59.5392 31.672L59.7457 32.1231L59.7616 31.5411V30.959L58.8241 30.9154C58.0296 30.8717 57.8231 30.9154 57.5529 31.1627Z" fill="white"/>
<path d="M73.6179 31.1779C72.9823 31.5416 72.5692 32.3564 72.7122 33.0112C72.7598 33.3022 73.03 33.6659 73.3637 33.9279C73.8245 34.3062 74.0469 34.3789 74.7143 34.3789C76.0808 34.3789 76.923 33.7096 76.923 32.6329C76.923 31.2215 75.0321 30.3922 73.6179 31.1779ZM75.3658 31.7599C75.7312 32.4146 75.7471 33.695 75.3976 34.0006C75.1115 34.2625 75.1274 34.2625 74.7778 34.1461C74.1899 33.9279 73.6815 32.1091 74.0628 31.4834C74.3488 30.9742 75.0321 31.1197 75.3658 31.7599Z" fill="white"/>
<path d="M78.4004 31.1054C77.1133 31.6146 77.0816 33.5643 78.3527 34.1609C78.893 34.4228 79.9735 34.4519 80.4661 34.2191C80.8315 34.0445 81.3559 33.5207 81.3718 33.317C81.3718 33.2442 81.2129 33.3024 81.0222 33.4188C80.4661 33.7826 79.5286 33.7098 79.0519 33.2879C78.7182 32.9823 78.6546 32.8077 78.7023 32.1821C78.7341 31.6146 78.8294 31.3818 79.0837 31.2218C79.3856 31.0472 79.465 31.0617 79.7987 31.3091C80.1165 31.5564 80.1483 31.6437 79.9894 31.8765C79.7669 32.2257 79.9894 32.4876 80.5138 32.4876C81.3559 32.4876 81.4036 31.4546 80.5773 31.0763C80.0529 30.8289 79.036 30.8435 78.4004 31.1054Z" fill="white"/>
<path d="M90.6831 31.2214C90.2064 31.6579 90.2858 32.0944 90.8102 32.0216C91.0327 31.9925 91.1598 31.8616 91.1916 31.5851C91.2869 30.8722 92.1926 30.9449 92.3992 31.687C92.5263 32.138 92.4151 32.3417 92.0496 32.3417C91.557 32.3417 90.6036 32.6473 90.3494 32.8656C89.9839 33.2002 90.0475 33.8841 90.4606 34.146C90.9055 34.437 92.0178 34.4515 92.4151 34.1751C92.6693 34.015 92.7488 34.015 92.9394 34.1751C93.1619 34.3788 94.2583 34.4515 94.449 34.2769C94.5125 34.2333 94.449 34.1169 94.306 34.015C94.1471 33.9132 93.9564 33.3894 93.8293 32.7055C93.5591 31.2505 93.3049 31.0031 92.0337 30.9158C91.1757 30.8576 91.0486 30.8867 90.6831 31.2214ZM92.6534 33.2439C92.6534 33.7386 92.0973 34.1314 91.6683 33.9277C91.4935 33.8404 91.3822 33.6222 91.3822 33.3457C91.3822 32.9965 91.4776 32.8656 91.8907 32.7055C92.4786 32.4872 92.6534 32.6036 92.6534 33.2439Z" fill="white"/>
<path d="M96.5462 31.017C96.4509 31.0897 96.0377 31.2498 95.5928 31.3662C95.1638 31.4971 94.9254 31.599 95.0684 31.599C95.4657 31.6135 95.6723 32.0791 95.6723 32.9522C95.6723 33.7961 95.5928 33.9561 95.1161 34.2035C94.8619 34.3344 95.1002 34.3635 96.3079 34.3635C97.5155 34.3635 97.7538 34.3344 97.4996 34.2035C96.9911 33.9416 96.9434 33.7961 96.9434 32.2974C96.9434 30.9442 96.8799 30.726 96.5462 31.017Z" fill="white"/>
<path d="M101.727 31.1627C101.06 31.7739 101.393 32.3704 102.792 33.0688C103.268 33.3162 103.459 33.5053 103.459 33.7527C103.459 34.1601 102.823 34.3492 102.251 34.1019C101.87 33.9418 101.727 33.5781 102.045 33.4762C102.124 33.4471 102.156 33.3162 102.092 33.1707C102.013 32.9815 101.854 32.9233 101.489 32.9524C101.06 32.9961 100.996 33.0543 100.948 33.4762C100.901 33.8982 100.964 33.9709 101.457 34.1601C102.092 34.4074 103.395 34.4511 103.999 34.2328C104.238 34.1601 104.492 33.9273 104.603 33.7236C104.873 33.1707 104.571 32.7487 103.538 32.2104C102.617 31.7302 102.315 31.381 102.665 31.1773C103.014 30.9881 103.491 31.2064 103.713 31.672L103.92 32.1231L103.936 31.5411V30.959L102.998 30.9154C102.204 30.8717 101.997 30.9154 101.727 31.1627Z" fill="white"/>
<path d="M114.978 31.2361C114.216 31.5271 114.2 31.5562 114.454 31.789C114.661 31.9781 114.74 32.2837 114.74 32.8948C114.74 33.9861 115.09 34.3789 116.059 34.3789C116.424 34.3789 116.885 34.2771 117.076 34.1607C117.362 33.9715 117.425 33.9715 117.6 34.1607C117.854 34.4371 118.935 34.4517 119.173 34.1752C119.316 34.0152 119.284 33.957 119.03 33.8988C118.744 33.826 118.712 33.7096 118.712 32.3564C118.712 31.5416 118.697 30.8869 118.681 30.8869C118.649 30.8869 118.236 31.0324 117.727 31.2215C116.917 31.5271 116.869 31.5707 117.139 31.7308C117.362 31.8617 117.441 32.08 117.441 32.5747C117.441 33.404 117.219 33.7969 116.758 33.7969C116.138 33.7969 116.011 33.535 116.011 32.1673C116.011 31.4689 115.963 30.9014 115.9 30.9014C115.82 30.916 115.407 31.0615 114.978 31.2361Z" fill="white"/>
<path d="M121.176 31.0324C121.128 31.1197 120.763 31.2506 120.366 31.3379C119.682 31.498 119.666 31.5125 119.984 31.7162C120.254 31.8908 120.302 32.08 120.302 32.9239C120.302 33.7969 120.254 33.957 119.952 34.1461C119.619 34.3644 119.682 34.3789 121.001 34.3789H122.4L122.034 34.1025C121.684 33.8551 121.653 33.695 121.605 32.3564C121.541 31.0033 121.43 30.6541 121.176 31.0324Z" fill="white"/>
<path d="M123.528 31.1054C122.241 31.6146 122.209 33.5643 123.48 34.1609C124.02 34.4228 125.101 34.4519 125.593 34.2191C125.959 34.0445 126.483 33.5207 126.499 33.317C126.499 33.2442 126.34 33.3024 126.149 33.4188C125.593 33.7826 124.656 33.7098 124.179 33.2879C123.845 32.9823 123.782 32.8077 123.83 32.1821C123.861 31.6146 123.957 31.3818 124.211 31.2218C124.513 31.0472 124.592 31.0617 124.926 31.3091C125.244 31.5564 125.275 31.6437 125.117 31.8765C124.894 32.2257 125.117 32.4876 125.641 32.4876C126.483 32.4876 126.531 31.4546 125.705 31.0763C125.18 30.8289 124.163 30.8435 123.528 31.1054Z" fill="white"/>
<path d="M128.008 31.0178C127.293 31.3088 126.896 31.8908 126.896 32.662C126.896 33.3022 126.959 33.4331 127.484 33.8842C128.008 34.3207 128.183 34.3789 128.946 34.3789C129.645 34.3789 129.899 34.3062 130.296 34.0006C130.884 33.5495 131.011 33.0548 130.439 33.4186C129.931 33.7532 129.009 33.7096 128.596 33.3604C128.405 33.1858 128.246 32.9966 128.246 32.9239C128.246 32.7929 128.421 32.7638 129.994 32.5165C130.662 32.4001 130.709 32.371 130.678 31.9781C130.63 31.3234 130.137 30.9887 129.168 30.9305C128.707 30.916 128.183 30.9451 128.008 31.0178ZM129.263 31.2652C129.406 31.3816 129.518 31.6726 129.518 31.8908C129.518 32.24 129.438 32.3273 129.025 32.4001C128.23 32.5456 128.087 32.5019 128.087 32.1818C128.087 31.6871 128.548 31.0469 128.914 31.0324C128.977 31.0324 129.136 31.1342 129.263 31.2652Z" fill="white"/>
<path d="M132.044 31.1341C131.393 31.818 131.599 32.3272 132.775 32.9383C133.792 33.4622 133.999 33.7532 133.57 34.0296C133.188 34.2915 132.68 34.2915 132.299 34.0296C132.044 33.855 132.028 33.7968 132.203 33.5931C132.521 33.2439 132.299 32.8947 131.806 32.9529C130.932 33.0402 130.9 33.7968 131.758 34.1897C132.394 34.4952 134.015 34.4225 134.507 34.0733C135.334 33.4767 134.968 32.7201 133.538 32.0653C132.728 31.7016 132.585 31.5124 132.902 31.2214C133.204 30.9304 133.76 31.1923 133.983 31.7161C134.189 32.2254 134.332 32.0508 134.205 31.4397C134.11 30.9595 134.094 30.9595 133.188 30.9159C132.473 30.8868 132.235 30.9304 132.044 31.1341Z" fill="white"/>
</svg>
