<svg width="611" height="172" viewBox="0 0 611 172" fill="none" xmlns="http://www.w3.org/2000/svg">
<path d="M393.598 0.625301C389.355 2.34139 388.635 6.91763 391.943 10.2783C394.317 12.5664 396.115 12.8524 399.135 11.2794C402.443 9.63477 403.162 5.34455 400.645 2.19838C398.919 -0.0182326 396.402 -0.590263 393.598 0.625301Z" fill="white"/>
<path d="M26.6808 4.41555C20.7118 9.2063 15.4619 10.1358 11.7223 6.98968C9.92437 5.4881 8.84563 5.20209 5.1779 5.20209H0.791016V13.425V21.6479H76.303H151.815V13.425V5.20209H147.428C143.76 5.20209 142.682 5.4881 140.884 6.98968C137.288 10.0643 131.678 9.13479 126.5 4.55855C124.127 2.55645 123.48 2.34194 118.877 2.34194C115.21 2.34194 113.627 2.62795 112.908 3.486C111.326 5.4166 108.162 6.63216 104.71 6.63216C101.258 6.63216 98.0936 5.4166 96.5114 3.486C95.7923 2.62795 94.2101 2.34194 90.9739 2.34194C87.0185 2.34194 85.9398 2.62795 83.3508 4.48705C81.0495 6.20314 79.6831 6.63216 76.8783 6.63216C73.2825 6.63216 70.0463 5.4166 68.4641 3.486C67.745 2.62795 66.1628 2.34194 62.2793 2.34194C58.3959 2.34194 56.8137 2.62795 56.0946 3.486C54.5124 5.4166 51.1323 6.77517 47.8961 6.77517C44.6599 6.77517 41.2798 5.4166 39.6977 3.486C38.9785 2.62795 37.3963 2.34194 33.9444 2.34194C29.7732 2.34194 28.8383 2.62795 26.6808 4.41555Z" fill="white"/>
<path d="M172.023 5.84595C173.318 7.41903 173.389 9.06362 173.389 26.5105C173.389 44.458 173.318 45.602 171.951 47.0321L170.585 48.5337H179.502H188.42L187.054 47.0321C185.759 45.6735 185.615 44.458 185.615 35.52V25.581L191.44 35.234C197.05 44.458 197.266 44.9585 196.259 46.6746L195.252 48.4622L204.457 48.5337C213.591 48.5337 213.663 48.5337 212.728 47.1036C212.152 46.2456 209.419 41.6693 206.543 36.8071L201.365 28.0836H195.396C190.146 28.0836 189.283 27.8691 187.917 26.439C185.975 24.3654 185.903 22.0773 187.773 20.2182C189.067 18.9311 190.146 18.7881 197.481 18.7881H205.752V11.2087V3.62934L203.45 4.12986C195.899 5.63144 188.995 10.9942 186.694 17.1435C185.759 19.8607 185.687 19.7892 185.687 13.4969C185.615 8.06257 185.831 6.847 186.982 5.63144L188.42 4.12986H179.574H170.657L172.023 5.84595Z" fill="white"/>
<path d="M271.196 5.13207C271.556 5.91861 272.275 6.77666 272.634 6.99117C273.426 7.4917 273.641 20.9344 272.922 20.9344C272.634 20.9344 271.34 19.9333 269.974 18.7893C268.032 17.0732 266.881 16.6442 264.364 16.6442C261.703 16.6442 260.624 17.0732 258.323 19.1468C250.34 26.2972 251.851 44.2446 260.84 48.4633C264.22 50.0364 267.528 49.3929 270.477 46.6757C271.771 45.4602 272.922 44.5306 273.066 44.5306C273.21 44.5306 273.354 45.4602 273.354 46.6757V48.8209H280.617H287.881L286.73 47.0333C285.723 45.5317 285.579 42.457 285.579 24.5096V3.7735H278.028C270.693 3.7735 270.477 3.84501 271.196 5.13207ZM271.484 22.5075C272.347 23.723 272.634 26.0827 272.634 32.804C272.634 40.3834 272.419 41.742 271.268 43.1721C269.47 45.3887 267.6 44.3876 266.665 40.8839C265.731 37.2373 266.306 23.5085 267.528 22.0785C268.895 20.5054 270.189 20.6484 271.484 22.5075Z" fill="white"/>
<path d="M371.95 8.20624C369.792 10.1368 365.909 13.2115 363.32 14.9276L358.573 18.0738H361.306H363.967V30.6584C363.967 45.2452 364.399 46.6038 369.505 48.5344C375.977 51.037 380.867 46.8898 383.025 37.0223C383.456 35.0202 383.456 34.9486 382.09 36.1642C380.436 37.6658 378.782 37.7373 377.344 36.2357C376.409 35.3777 376.193 33.3756 376.193 26.5827V18.0738H379.789C381.802 18.0738 383.385 17.7162 383.385 17.3587C383.385 16.9297 381.802 16.6437 379.789 16.6437H376.265L376.049 10.6374L375.833 4.63106L371.95 8.20624Z" fill="white"/>
<path d="M213.735 18.2169C214.095 18.8605 214.742 19.647 215.101 19.8615C215.533 20.1475 215.821 25.0098 215.821 31.8741C215.821 45.3884 216.468 47.3905 221.43 48.892C226.464 50.3221 230.779 47.891 233.009 42.3137C233.584 40.8836 233.728 41.3126 233.728 44.5303L233.8 48.5345L241.279 48.463H248.758L247.392 46.5324C246.169 44.8878 246.025 43.2432 246.025 30.8016V17.0014H238.546H230.995L232.433 18.5029C233.656 19.79 233.8 21.0056 233.8 28.585C233.8 38.238 233.224 39.7396 229.844 38.238C228.046 37.3799 228.046 37.3799 228.046 27.2264V17.0014H220.567C213.735 17.0014 213.16 17.1444 213.735 18.2169Z" fill="white"/>
<path d="M302.48 18.5023C300.538 19.3604 297.374 20.5044 295.504 20.9335C291.765 21.863 291.549 22.149 293.131 24.2226C294.641 26.2247 294.713 45.3877 293.131 46.6748C292.556 47.1753 292.052 47.7474 292.052 48.0334C292.052 48.2479 295.864 48.4624 300.61 48.4624H309.168L307.802 46.7463C306.723 45.3877 306.435 43.8147 306.435 38.7379C306.435 30.5865 306.795 30.2289 314.634 30.2289H320.531V23.4361C320.531 16.8577 320.531 16.6432 319.093 17.0723C313.987 18.6453 309.528 22.3635 307.586 26.5823C306.867 28.1553 306.723 27.6548 306.435 22.6496L306.076 16.9293L302.48 18.5023Z" fill="white"/>
<path d="M330.527 18.0738C330.239 18.8604 328.945 21.0055 327.578 22.7216C326.212 24.5092 325.133 26.0823 325.133 26.2968C325.133 26.5113 328.082 26.6543 331.606 26.6543H338.078V22.078V17.4303L340.164 18.1453C341.386 18.5744 342.609 19.7184 343.112 20.934C344.55 24.4377 342.393 27.0833 335.201 30.6585C331.821 32.3031 328.369 34.4482 327.434 35.4492C323.767 39.382 325.061 46.5323 329.808 48.5344C334.842 50.608 339.948 47.8909 341.961 42.0991L342.896 39.4535L343.687 42.2421C345.054 46.6753 347.427 48.3199 352.965 48.6774L357.711 49.035L356.201 47.0329C354.763 45.1738 354.619 44.2442 354.619 34.2337C354.619 24.9382 354.403 23.1506 353.252 21.22C351.023 17.6448 347.93 16.6438 338.941 16.6438C331.606 16.6438 330.958 16.7868 330.527 18.0738ZM342.105 37.8089C341.602 39.7395 339.157 40.669 337.718 39.525C337.071 39.0244 336.64 37.3798 336.64 35.7353C336.64 33.3756 337.071 32.4461 339.372 30.3725L342.033 27.7983L342.249 32.0171C342.393 34.3767 342.321 36.9508 342.105 37.8089Z" fill="white"/>
<path d="M388.491 18.5023C389.713 19.7894 389.857 21.0765 389.857 32.7316C389.857 44.3867 389.713 45.6738 388.491 46.9608L387.052 48.4624H395.97H404.888L403.449 46.9608C402.227 45.6023 402.083 44.3867 402.083 31.23V17.0007H394.604H387.052L388.491 18.5023Z" fill="white"/>
<path d="M0.215749 73.9896C0.431497 119.967 0.503413 121.468 1.86982 123.828C2.94856 125.544 10.6436 131.121 30.4925 144.421C45.451 154.431 59.8343 163.655 62.4952 164.871C66.7382 166.873 68.2484 167.159 74.7209 167.373C86.8028 167.874 87.3062 167.588 120.603 145.493C146.997 127.903 149.442 126.116 150.952 123.184L152.534 120.038V73.3461V26.6541H76.3031H0L0.215749 73.9896ZM100.395 57.4007C100.611 57.7582 99.1005 68.6983 97.0149 81.712L93.2034 105.308L76.375 105.165L59.4747 104.951L55.735 81.712C53.7214 68.9128 52.2111 58.1158 52.355 57.6152C52.7865 56.4712 99.6758 56.2567 100.395 57.4007ZM92.6999 111.529L92.4842 115.676L77.0941 115.891C66.3786 116.034 61.4164 115.819 60.7692 115.247C60.1938 114.747 59.7623 113.031 59.7623 110.957V107.453H76.3031H92.9157L92.6999 111.529Z" fill="white"/>
<path d="M58.6831 64.4796C58.8988 65.5522 60.3372 73.7751 61.8474 82.7131C63.3577 91.5796 64.7241 99.0875 65.0117 99.302C65.8747 100.16 71.0527 101.018 75.7272 101.018C82.1278 101.018 87.6653 99.8025 88.0968 98.3009C88.5283 97.0854 94.2816 63.9076 94.2816 62.9066C94.2816 62.6206 86.1551 62.406 76.2306 62.406H58.1797L58.6831 64.4796ZM76.7341 71.773C80.3299 71.773 84.1414 71.5585 85.1483 71.344C87.5215 70.7005 87.5215 71.058 86.0112 81.3545C85.4359 85.2872 84.9325 89.7205 84.9325 91.1505C84.9325 92.5806 84.4291 94.2252 83.8538 94.7972C81.912 96.7993 72.2033 97.1569 69.2548 95.3693C68.3199 94.7972 65.2994 72.7026 65.9466 71.5585C66.2343 71.201 67.2411 71.058 68.248 71.344C69.3267 71.63 73.1383 71.773 76.7341 71.773Z" fill="white"/>
<path d="M173.461 58.9027C174.252 60.0467 175.187 61.1193 175.547 61.3338C176.482 61.9058 176.482 119.395 175.547 119.967C175.187 120.181 174.18 121.397 173.317 122.612L171.735 124.829L175.115 124.329C179.43 123.685 193.382 123.685 196.906 124.329L199.495 124.829L197.193 121.969L194.964 119.18L195.108 104.951L195.324 90.7218L203.81 104.88L212.368 119.037L210.138 121.826L207.837 124.615L213.446 124.186C216.539 123.971 219.631 123.685 220.279 123.542C220.998 123.471 224.881 123.614 228.908 123.9C233.008 124.257 236.388 124.4 236.532 124.329C236.603 124.186 232.648 117.321 227.686 109.098L218.768 94.0825L210.642 93.725C201.94 93.3675 198.632 92.2949 197.05 89.4347C195.899 87.2181 196.115 82.7849 197.553 80.6398C199.782 77.2791 201.94 76.7071 212.727 76.7071H222.652L224.953 72.5599C226.176 70.3432 228.765 66.4105 230.706 63.9079C232.576 61.4053 234.518 58.8311 235.021 58.1876C235.812 57.1151 234.734 57.0436 223.73 57.0436H211.505V65.767V74.562H207.406C202.515 74.562 198.056 76.4926 196.259 79.3527C195.036 81.2833 195.036 81.1403 194.964 71.7018V62.0488L197.265 59.1887C199.063 57.0436 199.279 56.543 198.2 56.972C195.899 57.9016 180.653 58.3306 176.122 57.5441L172.023 56.9005L173.461 58.9027Z" fill="white"/>
<path d="M295.216 59.7603L297.805 62.9065V90.7929V118.608L295.144 121.754C292.627 124.686 292.555 124.829 294.209 124.4C297.949 123.399 309.168 123.041 314.346 123.756C317.294 124.185 319.811 124.471 319.883 124.328C319.955 124.257 319.092 123.041 317.941 121.683L315.856 119.251L315.784 106.595C315.784 94.2966 315.856 93.9391 317.366 92.8665C319.667 91.2935 321.753 91.4365 323.551 93.3671C325.061 94.9402 325.133 95.6552 325.133 109.67V124.257H336.568H348.074L346.133 122.255L344.191 120.252L343.831 102.591C343.472 85.4302 343.4 84.8581 341.674 81.7835C339.157 77.3502 336.064 75.8487 330.095 76.1347C323.982 76.4207 321.25 78.4228 318.157 84.6436L315.856 89.2199L315.784 72.917V56.6856L313.842 57.1862C311.109 57.9012 298.812 57.8297 295.36 57.1862L292.627 56.6141L295.216 59.7603Z" fill="white"/>
<path d="M501.255 59.4744L503.485 62.263V90.65V119.037L501.255 121.826L499.026 124.614L502.55 124.042C507.009 123.399 515.207 123.399 519.162 124.114L522.183 124.614V121.039V117.392L524.412 119.967C532.179 128.761 543.686 125.83 549.151 113.746C553.323 104.522 552.172 90.1495 546.706 82.6416C543.47 78.2083 540.522 76.4923 535.775 76.1347C532.251 75.8487 531.1 76.1347 528.368 77.7078C526.642 78.7089 524.556 80.425 523.693 81.4975L522.255 83.4996L522.183 70.1284V56.6857L518.803 57.2577C514.416 57.9013 507.8 57.9013 502.909 57.2577L499.098 56.7572L501.255 59.4744ZM530.525 85.4302C532.035 88.3619 532.755 103.735 531.676 110.6C530.381 118.822 526.426 120.61 523.549 114.389C522.471 111.887 522.183 109.598 522.183 101.018C522.183 95.2977 522.471 89.5774 522.902 88.2189C524.412 82.8561 528.44 81.426 530.525 85.4302Z" fill="white"/>
<path d="M598.774 57.6148C590.504 61.4045 593.236 73.8462 602.37 73.8462C608.267 73.8462 612.294 68.1974 610.424 62.6201C608.842 57.9724 603.305 55.6127 598.774 57.6148ZM605.174 58.4014C608.339 59.6884 609.921 62.1196 609.921 65.4803C609.921 69.1984 606.181 73.1312 602.729 73.1312C594.243 73.1312 591.654 61.7621 599.421 58.4014C602.226 57.1858 602.298 57.1858 605.174 58.4014Z" fill="white"/>
<path d="M598.415 65.1939C598.415 67.6251 598.702 69.5557 599.134 69.5557C599.565 69.5557 599.853 68.7691 599.853 67.7681C599.853 65.4799 600.788 65.4799 603.017 67.9111C604.024 68.9836 605.031 69.6272 605.319 69.3412C605.606 69.0551 605.319 68.2686 604.671 67.5536C603.593 66.338 603.593 66.195 604.743 65.0509C606.613 63.1918 605.103 61.4042 601.363 61.1182L598.415 60.9037V65.1939ZM603.521 63.4778C603.521 63.8354 602.658 64.2644 601.651 64.4074C600.356 64.5504 599.853 64.3359 599.853 63.4778C599.853 62.6198 600.356 62.4053 601.651 62.5483C602.658 62.6913 603.521 63.0488 603.521 63.4778Z" fill="white"/>
<path d="M246.961 79.2811C245.81 81.1402 243.58 84.3578 241.926 86.5029C240.2 88.5765 238.834 90.4356 238.834 90.6502C238.834 90.8647 243.221 91.0077 248.543 91.0077H258.251V84.2148V77.422L260.265 77.851C263.429 78.6375 264.652 79.4956 265.803 81.7122C267.169 84.2863 267.169 86.2169 265.874 88.7196C264.292 91.7942 262.207 93.2243 253.001 97.8005C242.142 103.163 240.128 105.308 239.697 111.958C239.409 117.178 240.848 120.467 244.587 122.97C251.923 127.975 262.351 123.327 264.796 113.96L265.731 110.314L266.953 114.318C269.326 121.826 274.289 124.9 283.278 124.471L287.881 124.257L285.651 121.468L283.422 118.68V102.806C283.422 87.5755 283.35 86.7889 281.768 83.7858C280.617 81.7122 278.891 79.9246 276.59 78.4945C273.138 76.3494 272.994 76.3494 261.056 76.1349L248.974 75.8489L246.961 79.2811ZM263.645 109.384C262.71 110.743 261.991 111.029 260.193 110.886C257.101 110.6 255.734 107.811 256.453 103.378C256.813 100.661 257.604 99.5166 260.625 96.585L264.364 93.0098L264.58 100.303C264.724 106.095 264.508 108.026 263.645 109.384Z" fill="white"/>
<path d="M369.721 76.9214C367.564 77.2074 362.53 77.2789 358.646 76.9929L351.527 76.5639L353.828 79.281L356.057 82.0696V98.5155C356.057 112.959 356.273 115.319 357.424 117.893C360.013 123.47 365.838 126.259 371.735 124.686C376.05 123.542 378.711 121.039 381.3 115.676L383.385 111.386V118.036V124.757L385.687 124.257C388.707 123.542 401.149 123.542 404.169 124.257L406.614 124.757L404.385 122.04L402.084 119.252V98.015V76.7069L394.748 77.1359C390.649 77.3504 385.471 77.2789 383.242 76.9214L379.142 76.2063L380.581 78.2084C381.372 79.3525 382.307 80.4251 382.666 80.6396C383.098 80.9256 383.385 86.5029 383.385 93.8678C383.385 104.522 383.17 106.81 382.235 107.739C380.796 109.17 377.345 109.17 375.906 107.739C375.259 107.167 374.684 106.595 374.612 106.524C374.54 106.452 374.324 99.5881 374.108 91.3651L373.677 76.3493L369.721 76.9214Z" fill="white"/>
<path d="M412.942 78.2798C413.733 79.3524 414.668 80.4249 415.028 80.6394C415.459 80.9255 415.747 88.7909 415.747 100.088V119.037L413.518 121.826L411.36 124.543L415.172 124.042C420.134 123.399 430.993 123.399 435.38 124.042L438.904 124.614L436.675 121.826L434.445 119.037V106.595C434.445 95.3692 434.589 93.9391 435.74 92.9381C437.466 91.365 439.623 91.4365 441.709 93.0811C443.435 94.4397 443.435 94.6542 443.65 109.598C443.866 122.827 444.01 124.686 444.945 124.328C447.318 123.399 458.034 123.041 461.773 123.756C463.931 124.185 465.801 124.4 465.944 124.257C466.088 124.114 465.153 122.898 464.003 121.54L461.773 119.037V106.524C461.773 94.3682 461.845 93.9391 463.355 92.8666C465.585 91.2935 467.958 91.4365 469.684 93.1526C471.051 94.5112 471.122 95.5122 471.122 109.598V124.614L474.215 124.114C478.026 123.399 487.879 123.399 491.475 124.042L494.136 124.543L491.978 121.897L489.821 119.251V104.45C489.821 87.7183 489.173 83.3566 486.153 79.9244C483.348 76.7782 480.615 75.7772 475.581 76.1347C469.972 76.4922 467.455 78.4228 464.578 84.2861L462.205 89.0054L461.414 85.7877C459.688 78.9949 456.02 75.9917 449.332 75.9917C442.787 75.9917 439.551 78.2798 436.315 85.2872L434.445 89.2199V82.7131V76.2777L428.692 76.9213C425.312 77.2788 420.565 77.2788 417.257 76.9213L411.576 76.2777L412.942 78.2798Z" fill="white"/>
<path d="M575.977 77.2074C571.662 78.852 566.772 82.2842 564.326 85.5019C559.148 92.2947 558.142 103.378 562.025 111.243C566.843 121.039 578.782 126.76 590.072 124.686C598.846 123.113 604.959 118.608 608.627 111.172C610.784 106.881 611 105.809 611 100.303C611 95.2979 610.64 93.5103 609.058 90.2211C606.685 85.0728 602.226 80.6396 597.048 78.28C591.798 75.7774 581.299 75.2768 575.977 77.2074ZM588.275 79.281C590.863 82.5702 592.086 87.933 592.446 97.8005C593.093 114.103 589.138 125.901 584.031 123.184C580.364 121.254 578.134 112.673 578.206 100.446C578.206 89.5061 579.788 81.8552 582.665 78.3515C583.96 76.8499 586.692 77.2789 588.275 79.281Z" fill="white"/>
<path d="M179.431 143.492C176.698 144.707 175.116 148.426 176.194 151.143C177.057 153.431 178.855 155.004 184.249 158.15C186.694 159.58 189.139 161.368 189.643 162.154C192.016 165.73 186.119 169.591 181.588 167.446C178.927 166.159 178.496 163.727 180.653 162.226C182.235 161.153 182.235 161.082 180.941 159.652C178.352 156.792 174.109 158.508 174.109 162.44C174.109 166.159 178.783 168.947 185.04 168.947C191.297 168.947 195.684 165.658 195.684 160.939C195.684 158.222 193.742 156.22 188.061 153.145C180.509 148.998 178.568 145.351 183.386 144.135C187.27 143.134 189.211 144.064 191.369 148.14L192.735 150.714L192.807 146.781V142.848L187.198 142.705C183.746 142.562 180.797 142.92 179.431 143.492Z" fill="white"/>
<path d="M202.157 143.921C200.791 144.707 198.921 145.28 198.058 145.351C196.332 145.351 194.965 146.781 196.691 146.781C198.633 146.781 199.28 149.427 199.28 157.65C199.28 166.087 199.065 166.802 196.763 168.089C195.613 168.733 196.619 168.876 201.797 168.876C207.91 168.876 208.198 168.804 206.688 167.732C205.249 166.802 205.034 166.016 205.034 162.011C205.034 156.649 205.897 154.647 208.198 154.647C210.715 154.647 211.506 156.148 212.009 161.725C212.369 166.23 212.297 166.945 211.075 167.875C209.852 168.804 210.355 168.876 215.749 168.947C221.574 168.947 221.718 168.876 220.208 167.66C219.129 166.802 218.482 165.086 217.978 161.225C217.547 158.293 216.9 155.362 216.54 154.575C214.958 151.715 210.859 150.928 207.191 152.859L205.105 153.931L204.89 148.283L204.674 142.634L202.157 143.921Z" fill="white"/>
<path d="M282.703 155.719C282.703 164.085 282.991 168.947 283.422 168.947C283.854 168.947 284.141 164.085 284.141 155.719C284.141 147.353 283.854 142.491 283.422 142.491C282.991 142.491 282.703 147.353 282.703 155.719Z" fill="white"/>
<path d="M293.49 143.134C293.49 143.492 294.137 143.921 294.928 144.135C296.294 144.493 296.366 145.137 296.366 155.576C296.366 166.302 296.294 166.731 294.784 167.803C293.274 168.876 293.346 168.947 297.229 168.947H301.329L299.603 167.16C297.877 165.515 297.805 165.015 297.805 156.434C297.805 151.5 297.949 147.496 298.092 147.496C298.308 147.496 300.466 151.357 302.983 156.077C305.428 160.796 307.729 164.657 308.017 164.657C308.304 164.657 310.462 161.01 312.835 156.577C315.208 152.215 317.438 148.068 317.869 147.496C318.373 146.781 318.588 149.355 318.588 155.934C318.66 165.086 318.588 165.515 316.862 167.16L315.137 168.947H321.753H328.369L326.571 167.517C324.917 166.23 324.773 165.73 324.558 158.508C324.198 148.64 324.773 144.564 326.643 144.135C329.52 143.349 327.794 142.491 323.335 142.491H318.66L317.15 145.494C316.287 147.21 314.489 150.642 313.051 153.145L310.534 157.721L306.65 150.07L302.839 142.491H298.164C295.575 142.491 293.49 142.777 293.49 143.134Z" fill="white"/>
<path d="M375.115 143.992C373.964 144.707 372.094 145.351 371.016 145.351C369.865 145.351 369.002 145.637 369.002 146.066C369.002 146.424 369.505 146.781 370.081 146.781C371.879 146.781 372.598 149.999 372.598 157.936C372.598 164.943 372.454 165.587 370.8 167.16L369.074 168.947L375.331 168.876C381.228 168.876 381.515 168.804 380.005 167.732C377.92 166.302 377.704 162.154 379.646 161.153C380.796 160.581 381.228 160.939 382.594 163.727C383.817 166.23 383.961 167.16 383.313 167.946C382.594 168.804 383.385 168.947 388.132 168.947H393.813L391.871 167.303C390.793 166.445 388.779 163.584 387.341 160.939L384.752 156.148L387.125 154.647C388.419 153.86 389.93 153.216 390.433 153.216C390.864 153.216 391.296 152.859 391.296 152.501C391.296 152.072 389.714 151.786 387.7 151.786C384.32 151.786 382.954 152.644 385.039 153.502C385.543 153.717 384.536 155.076 382.306 157.078L378.711 160.295L378.495 151.357C378.423 146.495 378.063 142.491 377.776 142.562C377.488 142.562 376.337 143.206 375.115 143.992Z" fill="white"/>
<path d="M433.007 143.776C430.778 145.564 431.497 148.71 434.23 149.354C436.603 149.997 438.329 148.925 438.616 146.708C438.976 143.276 435.74 141.56 433.007 143.776Z" fill="white"/>
<path d="M449.548 143.991C448.182 144.778 446.312 145.35 445.449 145.35C443.435 145.35 443.364 146.136 445.233 147.352C446.528 148.138 446.672 148.996 446.672 157.005C446.672 166.086 446.528 166.801 444.155 168.088C443.004 168.732 444.083 168.875 449.548 168.875C454.942 168.875 456.093 168.732 454.942 168.088C454.151 167.659 453.36 167.158 453.144 167.015C452.928 166.801 452.641 161.295 452.425 154.645L452.065 142.704L449.548 143.991Z" fill="white"/>
<path d="M482.63 155.719C482.63 164.085 482.918 168.947 483.35 168.947C483.781 168.947 484.069 164.085 484.069 155.719C484.069 147.353 483.781 142.491 483.35 142.491C482.918 142.491 482.63 147.353 482.63 155.719Z" fill="white"/>
<path d="M502.767 143.205C502.767 143.563 503.414 143.92 504.205 143.92C506.506 143.92 507.081 146.28 507.01 155.861C507.01 168.517 505.355 172.522 501.041 170.52C498.811 169.518 498.595 167.23 500.393 165.157C501.616 163.87 501.616 163.727 499.962 162.44C495.503 158.793 490.9 165.657 495.143 169.661C498.739 172.951 507.441 172.736 510.749 169.232C512.331 167.516 512.475 166.73 512.907 156.505C513.266 145.422 513.554 143.92 515.424 143.92C515.999 143.92 516.431 143.563 516.431 143.205C516.431 142.776 513.698 142.49 509.599 142.49C505.499 142.49 502.767 142.776 502.767 143.205Z" fill="white"/>
<path d="M544.477 143.922C543.686 144.708 543.039 145.566 543.039 145.924C543.039 147.354 545.484 149.642 546.994 149.642C548.505 149.642 550.95 147.354 550.95 145.924C550.95 144.923 548.145 142.492 546.994 142.492C546.419 142.492 545.268 143.135 544.477 143.922Z" fill="white"/>
<path d="M247.967 148.567C246.744 150.068 245.018 151.284 243.796 151.57C241.423 151.999 240.991 153.214 243.149 153.214C244.443 153.214 244.587 153.715 244.587 159.006C244.587 164.512 245.306 167.229 247.032 168.373C248.542 169.374 252.282 168.945 253.433 167.658C255.087 165.871 254.943 165.442 253.145 165.871C250.916 166.443 250.34 165.013 250.34 158.72V153.214H252.498C253.72 153.214 254.655 152.857 254.655 152.499C254.655 152.07 253.72 151.784 252.57 151.784C250.556 151.784 250.412 151.57 250.196 148.924L249.981 146.064L247.967 148.567Z" fill="white"/>
<path d="M398.99 148.567C397.768 150.068 396.042 151.284 394.819 151.57C392.446 151.999 392.015 153.214 394.172 153.214C395.467 153.214 395.61 153.715 395.61 159.006C395.61 164.512 396.33 167.229 398.056 168.373C399.566 169.374 403.305 168.945 404.456 167.658C406.11 165.871 405.966 165.442 404.168 165.871C401.939 166.443 401.364 165.013 401.364 158.72V153.214H403.521C404.744 153.214 405.679 152.857 405.679 152.499C405.679 152.07 404.744 151.784 403.593 151.784C401.579 151.784 401.436 151.57 401.22 148.924L401.004 146.064L398.99 148.567Z" fill="white"/>
<path d="M227.326 152.215C225.097 153.145 222.292 156.434 221.861 158.651C220.782 164.514 224.737 168.947 231.138 168.947C237.682 168.947 241.566 165.158 240.775 159.437C240.199 155.004 237.035 152.358 232.217 152.072C230.131 151.929 227.902 152.001 227.326 152.215ZM233.799 156.22C235.669 160.295 235.669 165.444 233.871 167.088C231.929 168.804 229.987 167.66 228.477 163.942C226.248 158.436 227.326 153.216 230.635 153.216C232.073 153.216 232.72 153.86 233.799 156.22Z" fill="white"/>
<path d="M260.48 153.144C257.46 156.147 258.61 158.435 265.442 162.725C269.398 165.3 268.175 169.089 263.716 167.945C261.559 167.445 260.408 165.514 261.775 164.728C262.206 164.442 262.422 163.655 262.134 162.94C261.775 162.082 260.984 161.796 259.401 161.939C257.46 162.153 257.172 162.439 256.956 164.513C256.741 166.587 257.028 166.944 259.258 167.874C262.134 169.089 268.031 169.304 270.764 168.231C271.843 167.874 272.994 166.73 273.497 165.729C274.72 163.011 273.353 160.938 268.679 158.292C264.507 155.933 263.141 154.216 264.723 153.215C266.305 152.286 268.463 153.358 269.47 155.647L270.405 157.863L270.477 155.003V152.143L266.233 151.928C262.638 151.714 261.703 151.928 260.48 153.144Z" fill="white"/>
<path d="M333.187 153.216C330.311 155.004 328.441 159.008 329.088 162.226C329.304 163.656 330.527 165.444 332.037 166.731C334.122 168.59 335.129 168.947 338.15 168.947C344.334 168.947 348.146 165.658 348.146 160.367C348.146 153.431 339.588 149.355 333.187 153.216ZM341.098 156.077C342.752 159.294 342.824 165.587 341.242 167.088C339.948 168.375 340.019 168.375 338.437 167.803C335.776 166.731 333.475 157.793 335.201 154.718C336.496 152.215 339.588 152.93 341.098 156.077Z" fill="white"/>
<path d="M354.834 152.858C349.009 155.36 348.865 164.942 354.618 167.873C357.063 169.16 361.954 169.303 364.183 168.159C365.837 167.301 368.21 164.727 368.282 163.726C368.282 163.369 367.563 163.655 366.7 164.227C364.183 166.014 359.94 165.657 357.782 163.583C356.272 162.081 355.985 161.223 356.2 158.149C356.344 155.36 356.776 154.216 357.926 153.43C359.293 152.571 359.652 152.643 361.163 153.859C362.601 155.074 362.745 155.503 362.026 156.647C361.019 158.363 362.026 159.65 364.399 159.65C368.21 159.65 368.426 154.574 364.686 152.714C362.313 151.499 357.711 151.57 354.834 152.858Z" fill="white"/>
<path d="M410.426 153.43C408.268 155.575 408.628 157.72 411.001 157.362C412.008 157.219 412.583 156.576 412.727 155.217C413.158 151.714 417.258 152.071 418.193 155.718C418.768 157.934 418.265 158.936 416.61 158.936C414.381 158.936 410.066 160.437 408.915 161.51C407.261 163.154 407.549 166.515 409.419 167.802C411.433 169.232 416.467 169.304 418.265 167.945C419.415 167.158 419.775 167.158 420.638 167.945C421.645 168.946 426.607 169.304 427.47 168.446C427.757 168.231 427.47 167.659 426.823 167.158C426.103 166.658 425.24 164.084 424.665 160.723C423.443 153.573 422.292 152.357 416.539 151.928C412.655 151.642 412.08 151.785 410.426 153.43ZM419.343 163.369C419.343 165.8 416.826 167.73 414.884 166.729C414.093 166.3 413.59 165.228 413.59 163.869C413.59 162.153 414.021 161.51 415.891 160.723C418.552 159.651 419.343 160.223 419.343 163.369Z" fill="white"/>
<path d="M436.962 152.429C436.531 152.786 434.661 153.573 432.647 154.145C430.706 154.788 429.627 155.289 430.274 155.289C432.072 155.36 433.007 157.648 433.007 161.939C433.007 166.086 432.647 166.872 430.49 168.088C429.339 168.732 430.418 168.875 435.884 168.875C441.349 168.875 442.428 168.732 441.277 168.088C438.976 166.801 438.76 166.086 438.76 158.721C438.76 152.071 438.473 150.999 436.962 152.429Z" fill="white"/>
<path d="M460.408 153.144C457.388 156.147 458.898 159.079 465.227 162.511C467.384 163.726 468.247 164.656 468.247 165.872C468.247 167.874 465.371 168.803 462.782 167.588C461.056 166.801 460.408 165.014 461.847 164.513C462.206 164.37 462.35 163.726 462.062 163.011C461.703 162.082 460.984 161.796 459.33 161.939C457.388 162.153 457.1 162.439 456.885 164.513C456.669 166.587 456.956 166.944 459.186 167.874C462.062 169.089 467.96 169.304 470.692 168.231C471.771 167.874 472.922 166.73 473.425 165.729C474.648 163.011 473.281 160.938 468.607 158.292C464.436 155.933 463.069 154.216 464.651 153.215C466.234 152.286 468.391 153.358 469.398 155.647L470.333 157.863L470.405 155.003V152.143L466.162 151.928C462.566 151.714 461.631 151.928 460.408 153.144Z" fill="white"/>
<path d="M520.385 153.502C516.933 154.933 516.861 155.076 518.012 156.22C518.947 157.149 519.306 158.651 519.306 161.654C519.306 167.017 520.889 168.947 525.275 168.947C526.93 168.947 529.015 168.447 529.878 167.875C531.173 166.945 531.46 166.945 532.251 167.875C533.402 169.233 538.292 169.305 539.371 167.946C540.018 167.16 539.874 166.874 538.724 166.588C537.429 166.23 537.285 165.658 537.285 159.008C537.285 155.004 537.214 151.786 537.142 151.786C536.998 151.786 535.128 152.501 532.827 153.431C529.159 154.933 528.943 155.147 530.166 155.934C531.173 156.577 531.532 157.65 531.532 160.081C531.532 164.157 530.525 166.087 528.44 166.087C525.635 166.087 525.06 164.8 525.06 158.079C525.06 154.647 524.844 151.858 524.556 151.858C524.197 151.929 522.327 152.644 520.385 153.502Z" fill="white"/>
<path d="M548.432 152.501C548.216 152.93 546.562 153.574 544.764 154.003C541.672 154.79 541.6 154.861 543.038 155.862C544.261 156.72 544.477 157.65 544.477 161.797C544.477 166.087 544.261 166.874 542.895 167.803C541.384 168.876 541.672 168.947 547.641 168.947H553.97L552.316 167.589C550.734 166.373 550.59 165.587 550.374 159.008C550.086 152.358 549.583 150.642 548.432 152.501Z" fill="white"/>
<path d="M559.076 152.858C553.251 155.36 553.107 164.942 558.861 167.873C561.306 169.16 566.196 169.303 568.425 168.159C570.08 167.301 572.453 164.727 572.525 163.726C572.525 163.369 571.806 163.655 570.943 164.227C568.425 166.014 564.182 165.657 562.025 163.583C560.515 162.081 560.227 161.223 560.443 158.149C560.587 155.36 561.018 154.216 562.169 153.43C563.535 152.571 563.895 152.643 565.405 153.859C566.843 155.074 566.987 155.503 566.268 156.647C565.261 158.363 566.268 159.65 568.641 159.65C572.453 159.65 572.669 154.574 568.929 152.714C566.556 151.499 561.953 151.57 559.076 152.858Z" fill="white"/>
<path d="M579.356 152.43C576.12 153.86 574.322 156.72 574.322 160.51C574.322 163.656 574.609 164.3 576.983 166.516C579.356 168.661 580.147 168.947 583.599 168.947C586.763 168.947 587.914 168.59 589.712 167.088C592.373 164.872 592.948 162.44 590.359 164.228C588.058 165.873 583.887 165.658 582.017 163.942C581.154 163.084 580.435 162.154 580.435 161.797C580.435 161.153 581.226 161.01 588.345 159.795C591.366 159.223 591.582 159.08 591.438 157.149C591.222 153.931 588.993 152.287 584.606 152.001C582.52 151.929 580.147 152.072 579.356 152.43ZM585.037 153.645C585.685 154.217 586.188 155.648 586.188 156.72C586.188 158.436 585.828 158.865 583.959 159.223C580.363 159.938 579.715 159.723 579.715 158.15C579.715 155.719 581.801 152.573 583.455 152.501C583.743 152.501 584.462 153.002 585.037 153.645Z" fill="white"/>
<path d="M597.624 153.001C594.675 156.361 595.61 158.864 600.932 161.867C605.534 164.441 606.469 165.871 604.528 167.23C602.802 168.517 600.5 168.517 598.774 167.23C597.624 166.372 597.552 166.086 598.343 165.085C599.781 163.369 598.774 161.652 596.545 161.938C592.589 162.368 592.446 166.086 596.329 168.016C599.206 169.518 606.541 169.16 608.771 167.444C612.51 164.513 610.856 160.794 604.384 157.577C600.716 155.789 600.069 154.86 601.507 153.43C602.873 151.999 605.391 153.287 606.397 155.861C607.332 158.363 607.98 157.505 607.404 154.502C606.973 152.142 606.901 152.142 602.802 151.928C599.565 151.785 598.487 151.999 597.624 153.001Z" fill="white"/>
</svg>
